<?xml version="1.0" encoding="utf-8"?>
<!-- Generator: Adobe Illustrator 21.0.2, SVG Export Plug-In . SVG Version: 6.00 Build 0)  -->
<svg version="1.1"
	 id="svg3420" inkscape:version="0.91 r13725" sodipodi:docname="layout.svg" xmlns:cc="http://creativecommons.org/ns#" xmlns:dc="http://purl.org/dc/elements/1.1/" xmlns:inkscape="http://www.inkscape.org/namespaces/inkscape" xmlns:rdf="http://www.w3.org/1999/02/22-rdf-syntax-ns#" xmlns:sodipodi="http://sodipodi.sourceforge.net/DTD/sodipodi-0.dtd" xmlns:svg="http://www.w3.org/2000/svg"
	 xmlns="http://www.w3.org/2000/svg" xmlns:xlink="http://www.w3.org/1999/xlink" x="0px" y="0px" viewBox="0 0 744.1 1052.4"
	 style="enable-background:new 0 0 744.1 1052.4;" xml:space="preserve">
<style type="text/css">
	.st0{display:none;}
	.st1{display:inline;fill:#A9F5A9;}
	.st2{display:inline;fill:#F2F5A9;}
	.st3{display:inline;fill:#F5A9A9;}
	.st4{display:inline;fill:#A9A9F5;}
	.st5{font-family:'Helvetica-Bold';}
	.st6{font-size:28px;}
	.st7{fill:none;stroke:#BEBEBE;stroke-dasharray:1,2;}
	.st8{fill:#BEBEBE;stroke:#BEBEBE;stroke-dasharray:1,2;}
	.st9{fill:none;stroke:#000000;stroke-width:0.9043;}
	.st10{font-family:'Helvetica';}
	.st11{font-size:8.5114px;}
	.st12{fill:#B5F2FF;}
	.st13{font-size:20px;}
	.st14{fill:#0000FF;fill-opacity:0;stroke:#BEBEBE;stroke-dasharray:1,2;}
	.st15{fill:none;stroke:#000000;}
	.st16{fill:#FFB7B7;}
	.st17{font-family:'ArialMT';}
	.st18{fill:#00D2FF;}
	.st19{font-size:8.9px;}
	.st20{font-size:14px;}
	.st21{fill:none;}
</style>
<sodipodi:namedview  bordercolor="#666666" borderopacity="1.0" id="base" inkscape:current-layer="layer2" inkscape:cx="378.18193" inkscape:cy="104.04406" inkscape:document-units="px" inkscape:guide-bbox="true" inkscape:pageopacity="0.0" inkscape:pageshadow="2" inkscape:window-height="836" inkscape:window-maximized="1" inkscape:window-width="1600" inkscape:window-x="0" inkscape:window-y="27" inkscape:zoom="3.959798" pagecolor="#ffffff" showgrid="false" showguides="false">
	<sodipodi:guide  id="guide5424" orientation="0,1" position="187.85714,379.28572"></sodipodi:guide>
</sodipodi:namedview>
<g id="layer2" inkscape:groupmode="layer" inkscape:label="Shepherding" class="st0">
	<rect id="rect4083" x="168.7" y="295.8" class="st1" width="169.7" height="98.5"/>
	<path id="rect3254" inkscape:connector-curvature="0" class="st2" d="M90.9,295.8v139.4h164.2v-69.7h-82.8v-69.7H90.9z"/>
	<rect id="rect4087" x="82.3" y="878.6" class="st3" width="280.1" height="79.3"/>
	<rect id="rect4087-6" x="384.1" y="878.6" class="st4" width="277.3" height="79.3"/>
</g>
<g id="layer1" inkscape:groupmode="layer" inkscape:label="Layout">
	<text transform="matrix(1 0 0 1 141.226 71.0765)" class="st5 st6">Student Robotics 2017 Layout</text>
	<rect id="rect6629" x="90.4" y="919.1" class="st7" width="30.2" height="30.2"/>
	<rect id="rect6631" x="120.5" y="919.1" class="st7" width="30.2" height="30.2"/>
	<rect id="rect6633" x="150.7" y="919.1" class="st7" width="30.2" height="30.2"/>
	<rect id="rect6635" x="180.8" y="919.1" class="st7" width="30.2" height="30.2"/>
	<rect id="rect6637" x="90.4" y="889" class="st7" width="30.2" height="30.2"/>
	<rect id="rect6639" x="120.5" y="889" class="st7" width="30.2" height="30.2"/>
	<rect id="rect6641" x="150.7" y="889" class="st7" width="30.2" height="30.2"/>
	<rect id="rect6211" x="214.3" y="826.6" class="st8" width="123" height="22.2"/>
	<path id="rect5056" inkscape:connector-curvature="0" sodipodi:nodetypes="ccccccccc" class="st9" d="M666.6,851.7v134.8H77.5
		V851.7l134.7,0.2v-67.6h128.7v67.6L666.6,851.7z"/>
	<text transform="matrix(1 0 0 1 253.9232 839.9914)" class="st10 st11">Helpdesk</text>
	<rect id="rect5644-6-2" x="242.3" y="920.1" class="st12" width="20.1" height="10.1"/>
	<rect id="rect6629-7" x="233.8" y="918.6" class="st7" width="30.2" height="30.2"/>
	<rect id="rect5642-0-6" x="265.7" y="920.1" class="st12" width="20.1" height="10.1"/>
	<rect id="rect6631-1" x="264" y="918.6" class="st7" width="30.2" height="30.2"/>
	<rect id="rect5638-5-8" x="242.3" y="907.3" class="st12" width="20.1" height="10.1"/>
	<rect id="rect6637-8" x="233.8" y="888.5" class="st7" width="30.2" height="30.2"/>
	<rect id="rect5640-3-7" x="265.7" y="907.3" class="st12" width="20.1" height="10.1"/>
	<rect id="rect6639-9" x="264" y="888.5" class="st7" width="30.2" height="30.2"/>
	<rect id="rect5638-5-6" x="109.1" y="383.1" class="st12" width="20.1" height="10.1"/>
	<rect id="rect6641-9" x="100.6" y="364.8" class="st7" width="30.2" height="30.2"/>
	<rect id="rect6631-9" x="452.4" y="889" class="st7" width="30.2" height="30.2"/>
	<rect id="rect6633-28" x="452.4" y="919.4" class="st7" width="30.2" height="30.2"/>
	<rect id="rect6635-1" x="482.5" y="919.4" class="st7" width="30.2" height="30.2"/>
	<rect id="rect6643-1" x="482.5" y="889.2" class="st7" width="30.2" height="30.2"/>
	<rect id="rect6629-9" x="532.8" y="919" class="st7" width="30.2" height="30.2"/>
	<rect id="rect6631-14" x="562.9" y="919" class="st7" width="30.2" height="30.2"/>
	<rect id="rect6633-9" x="593.1" y="919" class="st7" width="30.2" height="30.2"/>
	<rect id="rect6635-9" x="623.2" y="919" class="st7" width="30.2" height="30.2"/>
	<rect id="rect6637-1" x="532.8" y="888.8" class="st7" width="30.2" height="30.2"/>
	<rect id="rect6639-1" x="562.9" y="888.8" class="st7" width="30.2" height="30.2"/>
	<rect id="rect6641-03" x="593.1" y="888.8" class="st7" width="30.2" height="30.2"/>
	<rect id="rect6643-8" x="623.2" y="888.8" class="st7" width="30.2" height="30.2"/>
	<rect id="rect5638-5-3" x="98.7" y="908.1" class="st12" width="20.1" height="10.1"/>
	<rect id="rect5640-3-3" x="122" y="908.1" class="st12" width="20.1" height="10.1"/>
	<rect id="rect5642-0-4" x="122" y="920.9" class="st12" width="20.1" height="10.1"/>
	<rect id="rect5644-6-0" x="98.7" y="920.9" class="st12" width="20.1" height="10.1"/>
	<rect id="rect5638-5-7" x="159" y="907.8" class="st12" width="20.1" height="10.1"/>
	<rect id="rect5642-0-5" x="182.3" y="920.6" class="st12" width="20.1" height="10.1"/>
	<rect id="rect5644-6-5" x="159" y="920.6" class="st12" width="20.1" height="10.1"/>
	<rect id="rect6635-3" x="266" y="364.8" class="st7" width="30.2" height="30.2"/>
	<rect id="rect5642-0-0" x="275" y="365.7" class="st12" width="20.1" height="10.1"/>
	<rect id="rect6637-81" x="100.5" y="304.5" class="st7" width="30.2" height="30.2"/>
	<rect id="rect5638-5-63" x="108.9" y="323.4" class="st12" width="20.1" height="10.1"/>
	<rect id="rect6639-8" x="181" y="889.1" class="st7" width="30.2" height="30.2"/>
	<rect id="rect5640-3-74" x="182.6" y="908" class="st12" width="20.1" height="10.1"/>
	<rect id="rect5642-0-3" x="460.7" y="908" class="st12" width="20.1" height="10.1"/>
	<rect id="rect5640-3-4" x="484.1" y="908" class="st12" width="20.1" height="10.1"/>
	<rect id="rect5642-0-34" x="484.1" y="920.7" class="st12" width="20.1" height="10.1"/>
	<rect id="rect5644-6-58" x="460.8" y="920.7" class="st12" width="20.1" height="10.1"/>
	<rect id="rect5638-5-39" x="541.1" y="907.5" class="st12" width="20.1" height="10.1"/>
	<rect id="rect5640-3-744" x="564.4" y="907.5" class="st12" width="20.1" height="10.1"/>
	<rect id="rect5642-0-2" x="564.4" y="920.2" class="st12" width="20.1" height="10.1"/>
	<rect id="rect5644-6-59" x="541.1" y="920.2" class="st12" width="20.1" height="10.1"/>
	<rect id="rect5638-5-85" x="601.6" y="907.6" class="st12" width="20.1" height="10.1"/>
	<rect id="rect5640-3-1" x="624.9" y="907.6" class="st12" width="20.1" height="10.1"/>
	<rect id="rect5642-0-9" x="624.9" y="920.4" class="st12" width="20.1" height="10.1"/>
	<rect id="rect5644-6-23" x="601.6" y="920.4" class="st12" width="20.1" height="10.1"/>
	<text transform="matrix(1 0 0 1 54.9518 158.8134)" class="st5 st13">Ground Floor</text>
	<text transform="matrix(1 0 0 1 54.9518 571.7289)" class="st5 st13">First Floor</text>
	<text transform="matrix(1 0 0 1 54.9518 749.4592)" class="st5 st13">Second Floor</text>
	<rect id="rect5473" x="130.4" y="304.6" class="st14" width="30.2" height="30.2"/>
	<rect id="rect5475" x="100.4" y="334.7" class="st14" width="30.2" height="30.2"/>
	<rect id="rect5477" x="130.4" y="334.7" class="st14" width="30.2" height="30.2"/>
	<rect id="rect5486" x="130.4" y="364.9" class="st14" width="30.2" height="30.2"/>
	<rect id="rect5488" x="100.4" y="395" class="st14" width="30.2" height="30.2"/>
	<rect id="rect5490" x="130.4" y="395" class="st14" width="30.2" height="30.2"/>
	<path id="rect3304" inkscape:connector-curvature="0" sodipodi:nodetypes="ccccccccc" class="st15" d="M666.6,281.7v166.5H77.4
		V281.7l115.7-0.6v-69.7h129.1v69.7L666.6,281.7z"/>
	<g id="g6679" transform="translate(-38,99.23351)">
		<rect id="rect5949" x="539.6" y="219" class="st16" width="85.4" height="85.4"/>
		<text transform="matrix(1 0 0 1 565.7844 264.7839)" class="st17 st11">Arena B</text>
	</g>
	<g id="g6674" transform="translate(-8,99.23351)">
		<rect id="rect5504" x="413.9" y="219" class="st16" width="85.4" height="85.4"/>
		<text transform="matrix(1 0 0 1 439.8659 264.7839)" class="st17 st11">Arena A</text>
	</g>
	<rect id="rect5640" x="132" y="323.2" class="st12" width="20.1" height="10.1"/>
	<rect id="rect5642" x="132" y="336" class="st12" width="20.1" height="10.1"/>
	<rect id="rect5644" x="108.7" y="336" class="st12" width="20.1" height="10.1"/>
	<rect id="rect5656" x="132" y="383.6" class="st18" width="20.1" height="10.1"/>
	<rect id="rect5658" x="132" y="396.4" class="st18" width="20.1" height="10.1"/>
	<rect id="rect5660" x="108.7" y="396.4" class="st18" width="20.1" height="10.1"/>
	<rect id="rect5664" x="132" y="383.6" class="st12" width="20.1" height="10.1"/>
	<rect id="rect5666" x="132" y="396.4" class="st12" width="20.1" height="10.1"/>
	<rect id="rect5668" x="108.7" y="396.4" class="st12" width="20.1" height="10.1"/>
	<rect id="rect5670" x="191.8" y="323.2" class="st12" width="20.1" height="10.1"/>
	<rect id="rect5672" x="215.1" y="323.2" class="st12" width="20.1" height="10.1"/>
	<rect id="rect5674" x="215.1" y="336" class="st12" width="20.1" height="10.1"/>
	<rect id="rect5676" x="191.8" y="336" class="st12" width="20.1" height="10.1"/>
	<rect id="rect5678" x="191.8" y="383.6" class="st12" width="20.1" height="10.1"/>
	<rect id="rect5680" x="215.1" y="383.6" class="st12" width="20.1" height="10.1"/>
	<rect id="rect5682" x="215.1" y="396.4" class="st12" width="20.1" height="10.1"/>
	<rect id="rect5684" x="191.8" y="396.4" class="st12" width="20.1" height="10.1"/>
	<rect id="rect5688" x="297.8" y="365.7" class="st12" width="20.1" height="10.1"/>
	<rect id="rect5694" x="298.1" y="336" class="st12" width="20.1" height="10.1"/>
	<rect id="rect5696" x="274.8" y="336" class="st12" width="20.1" height="10.1"/>
	<rect id="rect3923-1" x="183.3" y="304.9" class="st14" width="30.2" height="30.2"/>
	<rect id="rect5473-7" x="213.3" y="304.9" class="st14" width="30.2" height="30.2"/>
	<rect id="rect5475-1" x="183.3" y="335" class="st14" width="30.2" height="30.2"/>
	<rect id="rect5477-5" x="213.3" y="335" class="st14" width="30.2" height="30.2"/>
	<rect id="rect5484-2" x="183.3" y="365.2" class="st14" width="30.2" height="30.2"/>
	<rect id="rect5486-4" x="213.3" y="365.2" class="st14" width="30.2" height="30.2"/>
	<rect id="rect5488-3" x="183.3" y="395.2" class="st14" width="30.2" height="30.2"/>
	<rect id="rect5490-5" x="213.3" y="395.2" class="st14" width="30.2" height="30.2"/>
	<rect id="rect5475-9" x="266.4" y="334.5" class="st14" width="30.2" height="30.2"/>
	<rect id="rect5477-0" x="296.4" y="334.5" class="st14" width="30.2" height="30.2"/>
	<rect id="rect5486-6" x="296.4" y="364.7" class="st14" width="30.2" height="30.2"/>
	<g id="g3601" transform="translate(-101.01525,0)">
		<rect id="rect6642" x="564.6" y="412" class="st16" width="101.7" height="35.7"/>
		<text transform="matrix(1 0 0 1 575.3749 432.0153)" class="st10 st11">Robot Staging Bays</text>
	</g>
	<text transform="matrix(1 0 0 1 236.2234 204.495)" class="st10 st19">Entrance</text>
	<text transform="matrix(1 0 0 1 336.8859 480.8138)" class="st10 st20">Parking</text>
	<path class="st21" d=""/>
	<path id="path6735" d="M328.9,492.7l-3.6,9.8l-3.6-9.8C323.8,494.2,326.7,494.2,328.9,492.7z"/>
	<path id="path6702" inkscape:connector-curvature="0" d="M325.3,500.5"/>
	<text transform="matrix(1 0 0 1 222.1013 250.5432)" class="st10 st19">Reception Area</text>
	<text transform="matrix(1 0 0 1 169.4471 634.093)" class="st10 st20">Food and drink will be available for purchase on this floor.</text>
	<rect id="rect6643" x="296.4" y="304.3" class="st7" width="30.2" height="30.2"/>
	<rect id="rect5640-3-8" x="298.2" y="323.2" class="st12" width="20.1" height="10.1"/>
	<rect id="rect6643-6" x="266.3" y="304.3" class="st7" width="30.2" height="30.2"/>
	<rect id="rect5640-3-8-0" x="274.6" y="323.2" class="st12" width="20.1" height="10.1"/>
	<rect id="rect5367" x="302.3" y="920.1" class="st12" width="20.1" height="10.1"/>
	<rect id="rect5369" x="293.8" y="918.6" class="st7" width="30.2" height="30.2"/>
	<rect id="rect5371" x="325.7" y="920.1" class="st12" width="20.1" height="10.1"/>
	<rect id="rect5375" x="302.3" y="907.3" class="st12" width="20.1" height="10.1"/>
	<rect id="rect5377" x="293.8" y="888.5" class="st7" width="30.2" height="30.2"/>
	<rect id="rect5379" x="325.7" y="907.3" class="st12" width="20.1" height="10.1"/>
	<rect id="rect5381" x="324" y="888.5" class="st7" width="30.2" height="30.2"/>
	<rect id="rect5431" x="400.3" y="920.1" class="st12" width="20.1" height="10.1"/>
	<rect id="rect5433" x="391.8" y="918.6" class="st7" width="30.2" height="30.2"/>
	<rect id="rect5435" x="423.7" y="920.1" class="st12" width="20.1" height="10.1"/>
	<rect id="rect5437" x="422" y="918.6" class="st7" width="30.2" height="30.2"/>
	<rect id="rect5439" x="400.3" y="907.3" class="st12" width="20.1" height="10.1"/>
	<rect id="rect5441" x="391.8" y="888.5" class="st7" width="30.2" height="30.2"/>
	<rect id="rect5443" x="423.7" y="907.3" class="st12" width="20.1" height="10.1"/>
	<rect id="rect5445" x="422" y="888.5" class="st7" width="30.2" height="30.2"/>
	<text transform="matrix(1 0 0 1 98.2603 906.0807)" class="st10 st11">JLS</text>
	<text transform="matrix(1 0 0 1 127.1854 906.0807)" class="st10 st11">TCS</text>
	<text transform="matrix(1 0 0 1 156.7662 906.0807)" class="st10 st11">BRN</text>
	<text transform="matrix(1 0 0 1 267.3208 906.0807)" class="st10 st11">GRD2</text>
	<text transform="matrix(1 0 0 1 489.666 906.0246)" class="st10 st11">CLF</text>
	<text transform="matrix(1 0 0 1 458.6374 906.0807)" class="st10 st11">CHB</text>
	<text transform="matrix(1 0 0 1 538.8578 906.0807)" class="st10 st11">HRS</text>
	<text transform="matrix(1 0 0 1 567.8661 906.0807)" class="st10 st11">WGS</text>
	<text transform="matrix(1 0 0 1 598.0099 906.0807)" class="st10 st11">CHW</text>
	<text transform="matrix(1 0 0 1 241.3631 906.0807)" class="st10 st11">MAI</text>
	<text transform="matrix(1 0 0 1 187.393 906.0807)" class="st17 st11">KDE</text>
	<text transform="matrix(1 0 0 1 298.003 906.0807)" class="st10 st11">BPV2</text>
	<text transform="matrix(1 0 0 1 330.6539 906.0807)" class="st10 st11">DUL</text>
	<text transform="matrix(1 0 0 1 397.7152 906.0807)" class="st10 st11">HSO</text>
	<text transform="matrix(1 0 0 1 428.924 906.0246)" class="st10 st11">TTN</text>
	<text transform="matrix(1 0 0 1 156.3901 935.882)" class="st10 st11">GDC</text>
	<text transform="matrix(1 0 0 1 187.3846 935.882)" class="st10 st11">BRK</text>
	<text transform="matrix(1 0 0 1 240.2888 935.882)" class="st10 st11">PSC</text>
	<text transform="matrix(1 0 0 1 270.7141 935.882)" class="st10 st11">KES</text>
	<text transform="matrix(1 0 0 1 459.026 935.882)" class="st10 st11">BDF</text>
	<text transform="matrix(1 0 0 1 488.8224 935.8259)" class="st10 st11">ABD</text>
	<text transform="matrix(1 0 0 1 539.8989 935.8259)" class="st10 st11">TLC</text>
	<text transform="matrix(1 0 0 1 569.5867 935.882)" class="st10 st11">HAY</text>
	<text transform="matrix(1 0 0 1 599.0615 935.8259)" class="st10 st11">QEH</text>
	<text transform="matrix(1 0 0 1 126.107 935.882)" class="st17 st11">MCS</text>
	<text transform="matrix(1 0 0 1 96.521 935.882)" class="st10 st11">KEG</text>
	<text transform="matrix(1 0 0 1 299.7963 935.882)" class="st10 st11">RGS</text>
	<text transform="matrix(1 0 0 1 330.8741 935.882)" class="st10 st11">CAT</text>
	<rect id="rect5373" x="324" y="918.6" class="st7" width="30.2" height="30.2"/>
	<text transform="matrix(1 0 0 1 398.1952 935.882)" class="st10 st11">SEN</text>
	<text transform="matrix(1 0 0 1 428.336 935.882)" class="st10 st11">SCS</text>
	<text transform="matrix(1 0 0 1 136.5218 321.517)" class="st10 st11">CAR</text>
	<text transform="matrix(1 0 0 1 107.5445 321.517)" class="st10 st11">SWI</text>
	<text transform="matrix(1 0 0 1 190.9678 321.517)" class="st10 st11">FAL</text>
	<text transform="matrix(1 0 0 1 219.7146 321.4609)" class="st10 st11">FRC</text>
	<text transform="matrix(1 0 0 1 303.4293 321.517)" class="st10 st11">BLE</text>
	<text transform="matrix(1 0 0 1 271.9613 321.517)" class="st10 st11">HAM</text>
	<text transform="matrix(1 0 0 1 106.707 351.8497)" class="st10 st11">CRS</text>
	<text transform="matrix(1 0 0 1 135.6657 351.9058)" class="st10 st11">TWG</text>
	<text transform="matrix(1 0 0 1 188.5262 351.9058)" class="st10 st11">WHS</text>
	<text transform="matrix(1 0 0 1 219.1058 351.8497)" class="st10 st11">CGS</text>
	<text transform="matrix(1 0 0 1 272.0569 351.8497)" class="st10 st11">GRD</text>
	<text transform="matrix(1 0 0 1 303.5 351.9058)" class="st10 st11">CLY</text>
	<text transform="matrix(1 0 0 1 106.5533 381.9393)" class="st17 st11">CRB</text>
	<text transform="matrix(1 0 0 1 272.2128 381.9954)" class="st10 st11">CCR</text>
	<text transform="matrix(1 0 0 1 137.2532 381.9393)" class="st10 st11">LFG</text>
	<text transform="matrix(1 0 0 1 188.9501 381.9954)" class="st10 st11">MFG</text>
	<text transform="matrix(1 0 0 1 220.4378 381.9393)" class="st10 st11">LSS</text>
	<text transform="matrix(1 0 0 1 301.6381 381.9954)" class="st10 st11">QMC</text>
	<text transform="matrix(1 0 0 1 137.3904 412.4801)" class="st10 st11">BAL</text>
	<text transform="matrix(1 0 0 1 107.1559 412.424)" class="st10 st11">BPV</text>
	<text transform="matrix(1 0 0 1 188.9563 412.4801)" class="st10 st11">DCG</text>
	<text transform="matrix(1 0 0 1 219.6211 412.4801)" class="st10 st11">SPH</text>
</g>
</svg>
